<svg width="16" height="16" viewBox="0 0 16 16" fill="none" xmlns="http://www.w3.org/2000/svg">
<path d="M9.66869 0.864295L7.99999 0L6.3313 0.864295L4.47328 1.1459L3.6313 2.82596L2.29366 4.1459L2.59999 6L2.29366 7.8541L3.6313 9.17404L4.47328 10.8541L6.3313 11.1357L7.99999 12L9.66869 11.1357L11.5267 10.8541L12.3687 9.17404L13.7063 7.8541L13.4 6L13.7063 4.1459L12.3687 2.82596L11.5267 1.1459L9.66869 0.864295ZM10.8648 2.05699L11.5487 3.42171L12.6353 4.4939L12.3864 6L12.6353 7.5061L11.5487 8.57829L10.8648 9.94301L9.35548 10.1718L7.99999 10.8738L6.64451 10.1718L5.13523 9.94301L4.45129 8.57829L3.36471 7.5061L3.61355 6L3.36471 4.49391L4.45129 3.42171L5.13523 2.05699L6.64451 1.82824L7.99999 1.12617L9.35548 1.82824L10.8648 2.05699Z" fill="white"/>
<path d="M3.99999 11.7938V16L7.99999 15L12 16V11.7938L9.98188 12.0997L7.99998 13.1262L6.01809 12.0997L3.99999 11.7938Z" fill="white"/>
</svg>
