<svg width="16" height="16" viewBox="0 0 16 16" fill="none" xmlns="http://www.w3.org/2000/svg">
<path fill-rule="evenodd" clip-rule="evenodd" d="M7.27046 1.04711C7.66553 0.625697 8.33446 0.625694 8.72953 1.04711L15.0754 7.81605C15.6742 8.45471 15.2213 9.49999 14.3459 9.49999H11.5V10.5C11.5 11.0523 11.0523 11.5 10.5 11.5H5.5C4.94771 11.5 4.5 11.0523 4.5 10.5V9.49999H1.65411C0.778674 9.49999 0.325827 8.45472 0.924576 7.81605L7.27046 1.04711ZM14.3459 8.49999L8 1.73105L1.65411 8.49999H4.5C5.05228 8.49999 5.5 8.94771 5.5 9.49999V10.5H10.5V9.49999C10.5 8.94771 10.9477 8.49999 11.5 8.49999L14.3459 8.49999Z" fill="white"/>
<path fill-rule="evenodd" clip-rule="evenodd" d="M4.5 13.5C4.5 12.9477 4.94772 12.5 5.5 12.5H10.5C11.0523 12.5 11.5 12.9477 11.5 13.5V14.5C11.5 15.0523 11.0523 15.5 10.5 15.5H5.5C4.94771 15.5 4.5 15.0523 4.5 14.5V13.5ZM10.5 13.5H5.5V14.5H10.5V13.5Z" fill="white"/>
</svg>
