<svg width="25" height="25" viewBox="0 0 25 25" fill="none" xmlns="http://www.w3.org/2000/svg">
<path d="M8.32964 11.6897L0.0773437 20.9601C0.0562012 20.8668 0.0244141 20.7765 0.0244141 20.6743V4.32561C0.0244141 4.20154 0.059082 4.08943 0.090625 3.97678L8.32964 11.6897ZM24.1205 3.19939C24.06 3.18586 24.0021 3.15662 23.9354 3.15662H1.06538C1.00205 3.15662 0.945459 3.18586 0.881348 3.19939L12.5005 14.0751L24.1205 3.19939ZM12.8324 15.2842C12.737 15.3755 12.6189 15.4198 12.5005 15.4198C12.3824 15.4198 12.2641 15.3755 12.1697 15.2842L9.13213 12.4416L0.813281 21.7844C0.896191 21.8099 0.977539 21.8433 1.06538 21.8433H23.9354C24.0277 21.8433 24.108 21.8099 24.1914 21.7844L15.8731 12.4416L12.8324 15.2842ZM16.6745 11.6897L24.9255 20.9591C24.9479 20.8657 24.9755 20.7755 24.9755 20.6743V4.32561C24.9755 4.20359 24.9453 4.08943 24.914 3.97732L16.6745 11.6897Z" fill="#313186"/>
</svg>
