<svg width="25" height="25" viewBox="0 0 25 25" fill="none" xmlns="http://www.w3.org/2000/svg">
<path d="M17.4391 16.0386L16.8065 16.7045C16.8065 16.7045 15.3029 18.2875 11.1987 13.9665C7.0946 9.64562 8.59818 8.06262 8.59818 8.06262L8.99652 7.64322C9.9779 6.61007 10.0704 4.95135 9.21416 3.74042L7.46285 1.26335C6.40316 -0.235417 4.35549 -0.433403 3.1409 0.845336L0.960899 3.14047C0.35865 3.77453 -0.044933 4.59646 0.00401138 5.50826C0.12922 7.84093 1.12598 12.8599 6.68799 18.7156C12.5862 24.9254 18.1205 25.1721 20.3837 24.9487C21.0996 24.8782 21.7221 24.4921 22.2237 23.9639L24.1968 21.8868C25.5286 20.4846 25.153 18.0808 23.449 17.1L20.7955 15.5727C19.6766 14.9287 18.3136 15.1178 17.4391 16.0386Z" fill="#313186"/>
</svg>
